<?xml version="1.0" encoding="UTF-8"?>
<svg id="_Слой_2" data-name="Слой 2" xmlns="http://www.w3.org/2000/svg" viewBox="0 0 719.49 635.66">
  <defs>
    <linearGradient id="goldGrad" x1="0%" y1="0%" x2="100%" y2="100%">
      <stop offset="0%"   stop-color="#D4A843"/>
      <stop offset="50%"  stop-color="#F0C85A"/>
      <stop offset="100%" stop-color="#C49A30"/>
    </linearGradient>
  </defs>
  <g id="_Слой_1-2" data-name="Слой 1">
    <path fill="url(#goldGrad)" stroke-width="0px" d="M613.8,437.27c-62.3-103.58-132.83-240.95-201.5-355.51L367.22,0h-16.51c-5.26,19.77-26.22,45.86-33.35,61.03-12.21,25.99-1.91,26.43,18.72,64.07l206.32,360.76,30.4,59.77-106.51.95c-9.82-18.63-13.04-29.8-27.52-49.02l-155.86-274.97c-10.29-18.78-10.26-28.99-25.78-40.4-19.27,12.94-14.27,13.44-25.87,34.79-8.93,16.45-15.27,26.27-23.65,42.54l-143.13,248.42c-77.1,142.82-94.44,127.54-.02,127,86.18-.49,172.52-.02,258.72-.02-2-24.09-9.24-28.93-19.64-46.55-33.15-56.19-11.28-41.79-156.49-41.79,3.5-13.11,16.34-33.82,24.36-47.34l91.22-145.89c4.18,18,25.71,50.9,36.21,68.58,8.16,13.76,11.9,23.61,19.08,36.06,7.25,12.59,11.91,19.4,19.91,35.23l78.91,141.69h302.74c-2.68-32.14-85.4-163.93-105.69-197.65Z"/>
  </g>
</svg>
