<?xml version="1.0" encoding="UTF-8"?>
<svg id="_Слой_2" data-name="Слой 2" xmlns="http://www.w3.org/2000/svg" viewBox="0 0 1860.9 636.75">
  <defs>
    <style>
      .cls-1, .cls-2 {
        fill: #231f20;
        stroke-width: 0px;
      }

      .cls-2 {
        fill-rule: evenodd;
      }
    </style>
  </defs>
  <g id="_Слой_1-2" data-name="Слой 1">
    <g>
      <path class="cls-2" d="M170.64,634.92c135.46,0,101.43,29.24,149.72-164.52,6.93-27.8,14.36-57.58,22.02-88.33l20.54-78.79c6.31-14.61,1.1-3.79,5.87-10.67l72.71,263.85c3.68,13.21,8.35,25.61,12.84,42.33,12.24,45.51-.28,36.12,118.1,36.12,22.86,0,32.96-63.54,47.42-107.03l112.2-367.78h-104.58c-13.93,59.96-92.83,314.42-93.58,347.82h-11c-.67-30.12-35.97-137.83-46.36-174.33l-52.71-173.49h-121.09c-1.36,16.39-77.32,330.84-88.07,347.82-20.23-87.11-80.85-245.67-104.58-347.82H0c4.42,19.02,13.3,34.68,19.71,57.53,7.27,25.9,11.8,40.01,19.53,63.23,13.08,39.31,25.9,77.97,39.9,120.09l60.53,182.2c6.4,19.58,10.64,51.76,30.97,51.76Z"/>
      <path class="cls-2" d="M1425.58,404.46c0,104.66,45.7,208.61,149.89,225.08,61.61,9.73,200.56,6.8,268.43,6.8,12.68,0,16.51-3.85,16.51-16.56v-265.01h-236.68c0,94.86-11.76,90.46,46.31,84.81l85.79,3.53c0,125.03,18.02,104.9-77.05,104.9-144.85,0-137.6-72-137.6-171.16,0-152.21,103.36-129.66,269.89-126.79,58.26,1.01,49.35,9.23,49.35-83.01-50.64-11.83-147.21-5.53-203.65-5.53-157.82,0-231.18,84.66-231.18,242.93Z"/>
      <path class="cls-1" d="M1314.39,437.27c-62.3-103.58-132.83-240.95-201.5-355.51L1067.81,0h-16.51c-5.26,19.77-26.22,45.86-33.35,61.03-12.21,25.99-1.91,26.43,18.72,64.07l206.32,360.76,30.4,59.77-106.51.95c-9.82-18.63-13.04-29.8-27.52-49.02l-155.86-274.97c-10.29-18.78-10.26-28.99-25.78-40.4-19.27,12.94-14.27,13.44-25.87,34.79-8.93,16.45-15.27,26.27-23.65,42.54l-143.13,248.42c-77.1,142.82-94.44,127.54-.02,127,86.18-.49,172.52-.02,258.72-.02-2-24.09-9.24-28.93-19.64-46.55-33.15-56.19-11.28-41.79-156.49-41.79,3.5-13.11,16.34-33.82,24.36-47.34l91.22-145.89c4.18,17.99,25.71,50.9,36.21,68.58,8.16,13.76,11.9,23.61,19.08,36.06,7.25,12.59,11.91,19.4,19.91,35.23l78.91,141.69h302.74c-2.68-32.14-85.4-163.93-105.69-197.65Z"/>
    </g>
  </g>
</svg>