<?xml version="1.0" encoding="UTF-8"?>
<!-- Мотив «Поставки» — грузовик (оранжевый)
     Источник: src/components/ServicesHeroAnim/ (статический экспорт). -->
<svg xmlns="http://www.w3.org/2000/svg" viewBox="0 0 900 560" font-family="'JetBrains Mono', 'Courier New', monospace">
<g><g><line x1="249.8" y1="380.8" x2="573.84" y2="380.8" stroke="#E8A572" stroke-width="0.6" stroke-opacity="0.4"></line><path class="_truckPile_db51d7" d="M 292.3 380.8 Q 317.8 356.8 334.8 363.8 Q 351.8 354.8 377.3 380.8 Z" fill="rgba(232,165,114,0.16)" stroke="#E8A572" stroke-width="0.5" stroke-opacity="0.5"></path><g class="_exDrive_db51d7" style="--ex-in:-144px"><g class="_truckSpeed_db51d7"><line x1="298.8" y1="294.4" x2="336.8" y2="294.4" stroke="#E8A572" stroke-width="0.9" stroke-opacity="0.5" stroke-dasharray="6 4"></line><line x1="298.8" y1="311.2" x2="336.8" y2="311.2" stroke="#E8A572" stroke-width="0.9" stroke-opacity="0.5" stroke-dasharray="6 4"></line><line x1="298.8" y1="328" x2="336.8" y2="328" stroke="#E8A572" stroke-width="0.9" stroke-opacity="0.5" stroke-dasharray="6 4"></line></g><rect x="553.2" y="352.40000000000003" width="0" height="6" fill="#E8A572" opacity="0.55"></rect><g class="_truckBed_db51d7" style="transform-box:view-box;transform-origin:346.8px 352.40000000000003px"><rect x="346.8" y="232.40000000000003" width="139.48000000000002" height="120" fill="rgba(232,165,114,0.10)" stroke="#E8A572" stroke-width="1.2" stroke-opacity="0.9"></rect><line x1="351.8" y1="238.40000000000003" x2="481.28000000000003" y2="238.40000000000003" stroke="#E8A572" stroke-width="0.5" stroke-opacity="0.45" stroke-dasharray="3 2"></line><line x1="381.67" y1="244.40000000000003" x2="381.67" y2="346.40000000000003" stroke="#E8A572" stroke-width="0.5" stroke-opacity="0.45"></line><line x1="416.54" y1="244.40000000000003" x2="416.54" y2="346.40000000000003" stroke="#E8A572" stroke-width="0.5" stroke-opacity="0.45"></line><line x1="451.41" y1="244.40000000000003" x2="451.41" y2="346.40000000000003" stroke="#E8A572" stroke-width="0.5" stroke-opacity="0.45"></line><path class="_truckLoad_db51d7" d="M 356.8 232.40000000000003 Q 388.644 222.40000000000003 423.514 228.40000000000003 Q 458.384 220.40000000000003 476.28000000000003 232.40000000000003 Z" fill="#E8A572"></path></g><polygon points="491.28000000000003,358.40000000000003 491.28000000000003,267.20000000000005 528.432,267.20000000000005 553.2,308.24000000000007 553.2,358.40000000000003" fill="rgba(232,165,114,0.10)" stroke="#E8A572" stroke-width="1.1" stroke-opacity="0.85" stroke-linejoin="round"></polygon><polygon points="497.28000000000003,278.14400000000006 525.336,278.14400000000006 542.0544,308.24000000000007 542.0544,317.36000000000007 497.28000000000003,317.36000000000007" fill="rgba(232,165,114,0.22)" stroke="#E8A572" stroke-width="0.5" stroke-opacity="0.65"></polygon><circle cx="547.2" cy="341.98400000000004" r="4" fill="#E8A572" opacity="0.7"></circle><g><circle cx="392.208" cy="364.8" r="16" fill="rgba(232,165,114,0.18)" stroke="#E8A572" stroke-width="1" stroke-opacity="0.9"></circle><circle cx="392.208" cy="364.8" r="6.72" fill="#E8A572" opacity="0.55"></circle><g><line x1="379.728" y1="364.8" x2="404.68800000000005" y2="364.8" stroke="#E8A572" stroke-width="0.7" stroke-opacity="0.75"></line><line x1="392.208" y1="352.32" x2="392.208" y2="377.28000000000003" stroke="#E8A572" stroke-width="0.7" stroke-opacity="0.75"></line></g></g><g><circle cx="516.048" cy="364.8" r="16" fill="rgba(232,165,114,0.18)" stroke="#E8A572" stroke-width="1" stroke-opacity="0.9"></circle><circle cx="516.048" cy="364.8" r="6.72" fill="#E8A572" opacity="0.55"></circle><g><line x1="503.568" y1="364.8" x2="528.528" y2="364.8" stroke="#E8A572" stroke-width="0.7" stroke-opacity="0.75"></line><line x1="516.048" y1="352.32" x2="516.048" y2="377.28000000000003" stroke="#E8A572" stroke-width="0.7" stroke-opacity="0.75"></line></g></g></g></g><text x="346.8" y="224.40000000000003" fill="#E8A572" font-size="8" font-family="monospace" font-weight="bold" opacity="0.85" letter-spacing="0.5px">04</text><text x="346.8" y="235.40000000000003" fill="#E8A572" font-size="5.5" font-family="monospace" opacity="0.55" letter-spacing="0.4px">САМОСВАЛ · 25 Т</text><text x="450" y="430" fill="#E8A572" font-size="12.5" font-family="monospace" text-anchor="middle" font-weight="bold" letter-spacing="1.2px" opacity="0.9">ПОСТАВКИ</text></g>
</svg>
